<?xml version="1.0" standalone="no"?>
<!DOCTYPE svg PUBLIC "-//W3C//DTD SVG 20010904//EN"
 "http://www.w3.org/TR/2001/REC-SVG-20010904/DTD/svg10.dtd">
<svg version="1.0" xmlns="http://www.w3.org/2000/svg"
 width="1238.000000pt" height="1238.000000pt" viewBox="0 0 1238.000000 1238.000000"
 preserveAspectRatio="xMidYMid meet">
<metadata>
Created by potrace 1.14, written by Peter Selinger 2001-2017
</metadata>
<g transform="translate(0.000000,1238.000000) scale(0.100000,-0.100000)"
fill="#000000" stroke="none">
<path d="M9648 12294 c-90 -12 -224 -51 -293 -87 -35 -17 -374 -243 -1235
-824 -140 -94 -379 -255 -530 -356 -292 -197 -683 -460 -1100 -742 -140 -94
-413 -278 -605 -407 l-351 -236 -151 171 c-84 95 -160 181 -170 192 -10 11
-49 56 -88 100 -38 44 -75 84 -81 90 -6 5 -58 64 -115 130 -57 66 -106 122
-109 125 -3 3 -43 48 -90 100 -109 123 -212 240 -225 254 -6 6 -60 67 -120
136 -61 69 -112 127 -115 130 -3 3 -55 61 -115 130 -167 190 -224 253 -298
329 -102 104 -239 186 -397 236 -117 37 -323 44 -450 16 -196 -44 -320 -112
-465 -256 -107 -105 -167 -195 -218 -325 -67 -173 -79 -387 -32 -570 28 -107
57 -172 124 -275 21 -34 174 -215 282 -335 17 -19 110 -125 207 -235 275 -309
581 -655 626 -706 23 -25 70 -79 106 -119 62 -71 132 -149 209 -235 20 -22 86
-96 146 -165 60 -69 112 -127 115 -130 3 -3 58 -65 123 -137 108 -122 272
-269 357 -321 174 -106 329 -173 495 -215 163 -41 256 -52 435 -51 139 0 206
8 344 39 248 56 381 121 753 372 153 103 433 291 623 419 190 128 469 316 620
418 659 444 1143 770 1560 1051 107 72 348 234 535 360 397 267 446 304 526
399 179 212 254 474 213 745 -55 364 -324 666 -677 760 -123 33 -247 42 -369
25z"/>
<path d="M838 10694 c-368 -66 -666 -359 -743 -729 -34 -163 -16 -365 46 -525
45 -116 7 -59 861 -1324 254 -377 792 -1175 1135 -1687 425 -631 575 -854 590
-870 12 -14 6 -23 -53 -75 -37 -32 -72 -63 -78 -69 -6 -5 -49 -44 -96 -85 -47
-41 -87 -77 -90 -80 -3 -3 -79 -71 -170 -150 -90 -80 -172 -152 -180 -160 -9
-8 -50 -44 -90 -80 -41 -36 -95 -83 -120 -105 -25 -22 -47 -42 -50 -45 -3 -3
-66 -59 -140 -124 -121 -107 -264 -234 -294 -261 -6 -6 -108 -96 -226 -200
-118 -104 -235 -208 -259 -230 -121 -110 -229 -290 -272 -450 -32 -123 -37
-303 -10 -429 94 -444 491 -758 936 -742 61 3 124 7 140 11 133 26 248 73 352
141 44 30 284 231 313 264 3 3 61 55 130 115 69 60 143 126 165 146 22 20 202
180 400 355 198 175 362 321 365 324 3 3 61 55 130 115 69 61 143 126 165 146
56 50 313 278 354 314 208 181 330 330 439 536 93 174 159 390 180 589 9 85 8
333 -2 380 -3 13 -8 42 -11 65 -18 126 -73 300 -140 440 -51 108 -98 179 -688
1056 -120 178 -323 479 -451 669 -128 190 -349 518 -491 730 -386 572 -592
879 -870 1292 -215 321 -263 386 -345 469 -56 56 -126 115 -171 142 -188 117
-436 162 -661 121z"/>
<path d="M10795 10109 c-216 -23 -372 -86 -532 -217 -71 -59 -550 -477 -563
-493 -3 -3 -70 -63 -150 -134 -80 -70 -161 -142 -180 -159 -19 -17 -73 -65
-120 -106 -47 -41 -87 -77 -90 -80 -3 -3 -41 -36 -85 -75 -44 -38 -87 -76 -96
-85 -9 -8 -47 -42 -85 -75 -37 -33 -93 -82 -122 -109 -30 -26 -68 -60 -85 -75
-16 -14 -35 -31 -41 -36 -6 -6 -49 -44 -96 -85 -47 -41 -87 -77 -90 -80 -3 -3
-58 -52 -123 -109 -281 -248 -442 -469 -542 -748 -31 -88 -72 -249 -80 -323
-4 -30 -9 -66 -11 -80 -6 -37 -5 -258 1 -310 30 -237 67 -372 155 -555 54
-114 137 -242 525 -815 61 -91 224 -331 360 -535 200 -297 394 -585 475 -705
6 -8 63 -94 128 -190 434 -645 621 -923 685 -1017 41 -60 185 -274 322 -478
287 -427 268 -402 346 -482 204 -208 503 -310 789 -267 304 45 558 224 698
491 45 86 72 164 99 293 10 47 6 245 -6 305 -18 87 -49 181 -84 250 -16 33
-130 209 -252 390 -214 316 -466 691 -841 1250 -97 143 -253 375 -347 515
-214 316 -617 915 -835 1240 -175 260 -211 311 -227 322 -5 4 -7 8 -2 8 4 0 0
11 -9 25 -9 14 -21 22 -28 18 -6 -3 -8 -3 -4 2 11 12 -11 47 -25 39 -18 -10
41 45 258 236 109 96 203 180 209 185 6 6 67 59 136 120 69 60 143 126 165
146 22 20 81 72 130 115 50 43 92 81 95 84 3 3 61 55 130 115 69 61 188 166
265 234 133 118 264 234 289 256 195 171 248 223 311 310 76 105 126 220 163
375 11 44 10 306 0 345 -3 11 -11 40 -17 65 -38 147 -114 282 -225 399 -127
132 -267 216 -446 266 -72 19 -220 32 -295 24z"/>
<path d="M6889 4686 c-2 -2 -51 -6 -109 -9 -58 -4 -118 -9 -135 -12 -16 -2
-43 -7 -60 -9 -117 -18 -285 -73 -417 -134 -96 -46 -403 -245 -963 -627 -66
-45 -266 -180 -445 -300 -179 -120 -406 -273 -505 -340 -303 -204 -595 -402
-920 -620 -170 -115 -384 -259 -475 -320 -91 -61 -304 -205 -475 -320 -170
-114 -341 -233 -378 -263 -139 -110 -259 -298 -309 -482 -18 -69 -23 -111 -23
-220 0 -154 5 -192 45 -311 109 -329 380 -557 740 -626 56 -11 220 -9 293 4
181 30 254 67 597 298 157 105 389 261 515 347 664 446 805 541 970 653 99 67
347 234 550 371 204 137 440 296 526 354 86 58 284 191 440 296 403 272 429
290 421 299 -4 5 -2 5 4 2 7 -4 24 3 38 14 l27 21 18 -24 c11 -12 27 -32 37
-44 94 -106 155 -176 190 -214 22 -25 54 -60 70 -79 16 -19 34 -39 39 -45 6
-6 62 -69 125 -141 223 -253 255 -290 260 -295 10 -10 96 -106 156 -175 70
-80 311 -353 358 -405 17 -19 67 -75 111 -125 43 -49 81 -92 84 -95 4 -3 35
-39 70 -80 244 -283 405 -386 681 -435 44 -8 202 -8 266 0 70 9 175 41 259 80
459 209 667 766 458 1225 -34 75 -102 182 -145 230 -13 14 -54 61 -92 105 -39
44 -75 85 -80 90 -6 6 -40 44 -76 85 -36 41 -69 80 -75 86 -56 62 -176 198
-345 389 -112 127 -209 235 -214 241 -6 6 -33 37 -61 69 -27 32 -55 63 -60 69
-6 6 -80 90 -165 186 -85 96 -159 180 -165 186 -5 6 -35 39 -65 74 -30 35 -59
68 -65 74 -5 6 -44 49 -85 96 -41 47 -77 87 -80 90 -3 3 -39 43 -80 90 -314
356 -609 527 -1044 604 -16 3 -72 8 -125 12 -53 4 -99 8 -102 10 -3 2 -8 2
-10 0z"/>
</g>
</svg>
