<svg id="Component_24_1" data-name="Component 24 – 1" xmlns="http://www.w3.org/2000/svg" width="3360.524" height="1778.224" viewBox="0 0 3360.524 1778.224">
  <g id="Group_6" data-name="Group 6" transform="translate(3360.523 -0.001) rotate(90)">
    <g id="Group_3" data-name="Group 3" transform="translate(1742.362 0.297) rotate(90)">
      <path id="Union_1" data-name="Union 1" d="M449.236,1091.187a215.632,215.632,0,0,1-43.638-56.865L25.326,319.135C-30.679,213.8,9.307,83.017,114.637,27.012S350.754,10.993,406.76,116.322l291.592,548.4L2392.5,14.4c111.371-42.751,236.31,12.876,279.061,124.246s-12.875,236.31-124.246,279.061L675.486,1136.239a215.763,215.763,0,0,1-226.25-45.052Z" transform="translate(0 604.211) rotate(-13)" fill="#002f67"/>
    </g>
    <g id="Group_4" data-name="Group 4" transform="translate(1725.365 0) rotate(90)" opacity="0.4">
      <path id="Union_1-2" data-name="Union 1" d="M449.236,1091.187a215.632,215.632,0,0,1-43.638-56.865L25.326,319.135C-30.679,213.8,9.307,83.017,114.637,27.012S350.754,10.993,406.76,116.322l291.592,548.4L2392.5,14.4c111.371-42.751,236.31,12.876,279.061,124.246s-12.875,236.31-124.246,279.061L675.486,1136.239a215.763,215.763,0,0,1-226.25-45.052Z" transform="translate(0 604.211) rotate(-13)" fill="#002f67"/>
    </g>
  </g>
  <path id="Path_205" data-name="Path 205" d="M3391.627,2412.505,794.081,3710.066H4135.435Z" transform="translate(-794.081 -1931.843)" fill="#002f67"/>
</svg>
