<svg xmlns="http://www.w3.org/2000/svg" xmlns:xlink="http://www.w3.org/1999/xlink" width="957.408" height="663.597" viewBox="0 0 957.408 663.597"><defs><style>.a{opacity:0.4;}.b{fill:#4eadb9;}.c{fill:#ddb606;}.d{opacity:0.57;mix-blend-mode:multiply;isolation:isolate;fill:url(#a);}.e{fill:#2e9331;}.f{fill:#1b6220;}</style><linearGradient id="a" x1="-3.341" y1="0.511" x2="-3.027" y2="-0.499" gradientUnits="objectBoundingBox"><stop offset="0" stop-color="#fff" stop-opacity="0"/><stop offset="0.474" stop-color="#b1b0b0" stop-opacity="0.329"/><stop offset="1" stop-color="#151011"/></linearGradient></defs><g class="a" transform="translate(957.409 287.254) rotate(110)"><g transform="translate(436.343 0) rotate(90)"><g transform="translate(98.49 0)"><path class="b" d="M712.56,251.066,296.622,20.855A167.665,167.665,0,0,0,81.159,67.648L0,177.237A268.1,268.1,0,0,1,241.929,207.6L620.622,417.162a94.922,94.922,0,1,0,91.938-166.1Z" transform="translate(0)"/></g><path class="c" d="M340.419,46.446A268.1,268.1,0,0,0,98.491,16.087L18.676,123.851A94.9,94.9,0,0,0,171.2,236.8L320.434,35.311Z" transform="translate(0 161.15)"/><path class="d" d="M340.419,46.446A268.1,268.1,0,0,0,98.491,16.087L18.676,123.851A94.9,94.9,0,0,0,171.2,236.8L320.434,35.311Z" transform="translate(0 161.15)"/></g><g transform="translate(436.342 98.491) rotate(90)"><path class="e" d="M712.56,251.066,296.622,20.855A167.665,167.665,0,0,0,81.159,67.648L0,177.237A268.1,268.1,0,0,1,241.929,207.6L620.622,417.162a94.922,94.922,0,1,0,91.938-166.1Z" transform="translate(0)"/></g><path class="f" d="M340.419,46.446A268.1,268.1,0,0,0,98.491,16.087L18.676,123.851A94.9,94.9,0,0,0,171.2,236.8L320.434,35.311Z" transform="translate(275.193 0) rotate(90)"/></g></svg>