<svg xmlns="http://www.w3.org/2000/svg" width="20.168" height="33.558" viewBox="0 0 20.168 33.558"><defs><style>.a{fill:#fff;}</style></defs><g transform="translate(0 0)"><path class="a" d="M335.383,523.456a10.084,10.084,0,1,0-19.6,0,15.066,15.066,0,0,0,1.1,3.923c.991,2.081,5.161,8.953,7.075,12.082-2.588.33-3.789,1.443-3.789,2.492,0,1.248,1.693,2.592,5.412,2.592S331,543.2,331,541.952c0-1.049-1.2-2.162-3.789-2.492,1.915-3.13,6.085-10,7.075-12.082A15.068,15.068,0,0,0,335.383,523.456Zm-5.946,18.5c-.105.295-1.407,1.035-3.852,1.035-2.473,0-3.777-.757-3.855-1.025.07-.259,1.133-.894,3.142-1.02l.05.082a.779.779,0,0,0,1.326,0l.051-.082C328.281,541.067,329.343,541.688,329.437,541.952Zm4.426-18.839c-.005.02-.009.04-.012.06a13.869,13.869,0,0,1-.974,3.535c-1,2.1-5.566,9.6-7.292,12.419-1.726-2.818-6.291-10.317-7.292-12.419a13.882,13.882,0,0,1-.975-3.534c0-.021-.007-.041-.012-.06a8.526,8.526,0,1,1,16.557,0Z" transform="translate(-315.501 -510.987)"/><path class="a" d="M335.914,525.159a5.412,5.412,0,1,0,5.412,5.412A5.418,5.418,0,0,0,335.914,525.159Zm0,9.266a3.854,3.854,0,1,1,3.854-3.854A3.858,3.858,0,0,1,335.914,534.425Z" transform="translate(-325.83 -520.745)"/></g></svg>