<svg xmlns="http://www.w3.org/2000/svg" width="30.253" height="34.122" viewBox="0 0 30.253 34.122"><defs><style>.a{fill:#fff;}</style></defs><g transform="translate(0 0)"><path class="a" d="M715.483,312.54a2.789,2.789,0,0,0-.624,1.759v14.986a2.806,2.806,0,0,0,2.8,2.8h.38l.069.068.068-.068h23.612l.068.068.068-.068h.381a2.806,2.806,0,0,0,2.8-2.8V314.3a2.788,2.788,0,0,0-.624-1.759.742.742,0,0,0-.217-.537l-13.758-13.758a.767.767,0,0,0-1.054,0L715.7,312A.742.742,0,0,0,715.483,312.54Zm3.943,18.3,7.03-7.031,3,3a.745.745,0,0,0,1.054,0l3-3,7.03,7.031Zm2.256-13.491v-5.232H738.54V317.1l-8.554,8.555Zm22.185-3.052v14.986a1.56,1.56,0,0,1-1.244,1.526l-8.052-8.053,9.135-9.135A1.539,1.539,0,0,1,743.867,314.3Zm-13.881-14.474,12.7,12.7-3.255,3.255v-4.114a.447.447,0,0,0-.447-.447H721.234a.447.447,0,0,0-.447.447v4.364l-3.505-3.506ZM716.1,314.3a1.542,1.542,0,0,1,.161-.677l9.136,9.135-8.053,8.053a1.56,1.56,0,0,1-1.244-1.526Z" transform="translate(-714.859 -298.035)"/></g></svg>