<svg xmlns="http://www.w3.org/2000/svg" width="828.216" height="559.226" viewBox="0 0 828.216 559.226"><defs><style>.a{opacity:0.4;}.b{fill:#ff8208;}.c{fill:#b25605;}</style></defs><g class="a" transform="matrix(0.309, -0.951, 0.951, 0.309, 0, 354.663)"><g transform="translate(372.915 0) rotate(90)"><path class="b" d="M122.5,10.293a82.511,82.511,0,1,0-79.918,144.38L404.139,354.786a145.744,145.744,0,0,0,187.294-40.675l70.548-95.261a232.47,232.47,0,0,1-45.261,11.42,231.259,231.259,0,0,1-165.037-37.809" transform="translate(0)"/></g><path class="c" d="M0,198.841A231.259,231.259,0,0,0,165.037,236.65,232.471,232.471,0,0,0,210.3,225.23l69.38-93.674A82.491,82.491,0,0,0,147.092,33.373L17.383,208.519Z" transform="translate(379.295 451.683) rotate(90)"/></g></svg>