<svg xmlns="http://www.w3.org/2000/svg" width="31.06" height="31.341" viewBox="0 0 31.06 31.341"><defs><style>.a{fill:#fff;}</style></defs><g transform="translate(0 0)"><path class="a" d="M507.635,312.444a4.76,4.76,0,0,0-.36.45,5.731,5.731,0,0,0-1.347,5.314,24.319,24.319,0,0,0,21.616,19.551q.346.031.687.031a6.352,6.352,0,0,0,3.313-.871,4.866,4.866,0,0,0,1.181-.953l.919-1.016a4.852,4.852,0,0,0-.344-6.845l-1.55-1.4a4.845,4.845,0,0,0-6.845.343l-.919,1.015a4.821,4.821,0,0,0-.856,1.331,17.162,17.162,0,0,1-8.527-7.8,4.844,4.844,0,0,0,1.771-1.241l.919-1.015a4.849,4.849,0,0,0-.343-6.847l-1.55-1.4a4.848,4.848,0,0,0-6.846.342Zm1.842-.181a3.6,3.6,0,0,1,5.086-.254l1.55,1.4a3.6,3.6,0,0,1,.255,5.087l-.918,1.015h0a3.594,3.594,0,0,1-1.629,1.033l-.279.084a.623.623,0,0,0-.379.874l.13.262a18.414,18.414,0,0,0,9.733,8.932l.242.095a.623.623,0,0,0,.818-.382l.082-.244a3.585,3.585,0,0,1,.743-1.267l.918-1.015a3.6,3.6,0,0,1,5.085-.255l1.55,1.4a3.6,3.6,0,0,1,.255,5.085l-.919,1.017a3.666,3.666,0,0,1-.894.718,5.323,5.323,0,0,1-3.25.668,23.068,23.068,0,0,1-20.5-18.546,4.558,4.558,0,0,1,.97-4.164.6.6,0,0,0,.056-.055l.043-.047a.678.678,0,0,0,.051-.064,3.508,3.508,0,0,1,.288-.363Z" transform="translate(-505.79 -306.449)"/><path class="a" d="M569.937,313.767a14.813,14.813,0,0,0-14.8-14.8,1.3,1.3,0,1,0,0,2.592,12.219,12.219,0,0,1,12.2,12.205,1.3,1.3,0,0,0,2.592,0Zm-1.3.673a.674.674,0,0,1-.673-.673,12.842,12.842,0,0,0-12.827-12.828.673.673,0,1,1,0-1.346,14.189,14.189,0,0,1,14.173,14.174A.673.673,0,0,1,568.642,314.44Z" transform="translate(-538.877 -298.97)"/><path class="a" d="M554.632,314.44a1.3,1.3,0,0,0,0,2.592,7.554,7.554,0,0,1,7.545,7.546,1.3,1.3,0,1,0,2.592,0A10.149,10.149,0,0,0,554.632,314.44Zm8.841,10.811a.674.674,0,0,1-.673-.673,8.178,8.178,0,0,0-8.168-8.169.673.673,0,0,1,0-1.346,9.525,9.525,0,0,1,9.515,9.515A.674.674,0,0,1,563.474,325.251Z" transform="translate(-538.527 -309.622)"/></g></svg>