<svg xmlns="http://www.w3.org/2000/svg" width="617.741" height="837.85" viewBox="0 0 617.741 837.85"><defs><style>.a{opacity:0.4;}.b{fill:#ff0001;}.c{fill:maroon;}</style></defs><g class="a" transform="translate(653.925 160.297) rotate(115)"><g transform="translate(747.597 0) rotate(90)"><path class="b" d="M218.242,42.582,18.128,404.139A145.744,145.744,0,0,0,58.8,591.433l95.261,70.548a233.047,233.047,0,0,1,26.39-210.3L362.622,122.5A82.512,82.512,0,1,0,218.242,42.582Z" transform="translate(0)"/></g><path class="c" d="M40.369,0A233.047,233.047,0,0,0,13.98,210.3l93.674,69.379a82.491,82.491,0,0,0,98.183-132.586L30.691,17.384Z" transform="translate(295.915 140.086) rotate(90)"/></g></svg>